<?xml version="1.0" standalone="no"?>
<!DOCTYPE svg PUBLIC "-//W3C//DTD SVG 20010904//EN"
 "http://www.w3.org/TR/2001/REC-SVG-20010904/DTD/svg10.dtd">
<svg version="1.0" xmlns="http://www.w3.org/2000/svg"
 width="505.000000pt" height="505.000000pt" viewBox="0 0 505.000000 505.000000"
 preserveAspectRatio="xMidYMid meet">
<metadata>
Created by potrace 1.14, written by Peter Selinger 2001-2017
</metadata>
<g transform="translate(0.000000,505.000000) scale(0.100000,-0.100000)"
fill="#000000" stroke="none">
<path d="M2299 5025 c-3 -3 -96 -15 -205 -26 -162 -16 -207 -24 -244 -43 -25
-13 -78 -36 -118 -51 -70 -26 -77 -32 -184 -151 -63 -71 -118 -124 -128 -124
-10 0 -69 16 -132 36 -143 45 -174 47 -221 11 -53 -40 -80 -93 -142 -281 -30
-93 -64 -183 -75 -201 -28 -46 -86 -96 -242 -214 -137 -103 -146 -113 -167
-196 -8 -29 -35 -67 -97 -135 -99 -109 -147 -198 -166 -309 -11 -65 -10 -77
11 -148 l22 -77 -59 -85 c-32 -48 -64 -97 -71 -109 -15 -28 -81 -335 -81 -375
0 -16 16 -76 36 -134 l37 -106 -12 -145 c-12 -136 -11 -147 5 -159 24 -17 34
-16 89 7 79 34 77 35 69 -93 -12 -204 16 -275 146 -372 65 -48 99 -82 125
-123 36 -59 91 -190 97 -233 2 -13 6 -28 10 -34 8 -13 25 -81 32 -129 4 -21 8
-41 10 -45 3 -4 7 -32 10 -62 3 -29 8 -63 10 -74 3 -11 5 -32 5 -47 1 -20 6
-28 19 -28 9 0 31 -7 47 -16 37 -19 170 -12 196 11 8 8 21 15 28 15 7 0 10 4
7 8 -2 4 9 17 25 27 16 11 29 25 29 32 0 6 9 18 20 26 11 8 17 17 14 20 -4 4
1 9 10 13 9 3 14 10 11 14 -2 4 7 20 20 34 14 15 25 30 25 34 0 4 14 24 29 45
28 37 29 38 37 15 4 -13 8 -84 9 -158 2 -74 8 -148 14 -163 6 -16 9 -32 7 -36
-2 -3 21 -26 52 -49 54 -41 59 -42 107 -36 28 3 62 7 76 8 14 2 31 6 37 10 7
4 12 5 12 1 0 -3 13 1 29 9 16 9 31 12 35 9 3 -4 6 -1 6 5 0 7 6 12 14 12 24
0 101 95 144 177 55 106 192 514 192 572 0 24 -5 60 -11 80 -9 32 -6 47 26
130 27 71 35 103 30 128 -8 42 9 73 40 73 21 0 28 12 66 109 41 107 42 110 69
104 15 -3 37 0 49 7 20 10 19 6 -9 -42 -91 -154 -229 -521 -250 -663 -19 -133
-5 -269 28 -263 40 8 86 134 187 518 13 47 36 114 53 150 58 125 125 396 103
410 -8 5 -6 30 9 91 38 159 19 240 -71 307 l-44 33 41 45 c65 69 79 106 65
169 -16 70 -67 174 -130 263 -49 69 -101 115 -165 149 -29 15 -30 15 -64 -22
-18 -20 -35 -35 -36 -33 -1 2 -8 21 -14 43 -6 22 -25 57 -42 77 -38 46 -246
177 -291 184 -26 4 -53 -4 -114 -34 -64 -31 -89 -50 -125 -96 -31 -39 -61 -64
-98 -82 -52 -25 -260 -84 -295 -84 -11 0 -33 -7 -50 -15 -23 -11 -45 -13 -76
-7 l-45 7 52 34 c67 42 88 73 97 139 6 46 12 57 51 89 38 32 44 42 44 76 0 31
12 56 65 132 85 122 108 173 144 328 17 70 40 145 51 167 11 21 20 47 20 56 0
9 8 22 17 29 28 21 57 -2 186 -144 98 -107 172 -174 216 -193 4 -2 22 -23 41
-47 33 -41 35 -47 36 -125 0 -110 23 -158 116 -247 40 -38 94 -81 119 -94 52
-27 144 -45 232 -45 53 0 58 2 67 26 14 36 12 100 -5 164 -8 30 -15 56 -15 57
0 0 15 19 34 41 28 34 39 64 66 174 18 73 44 157 57 187 15 36 23 72 23 113 0
59 0 59 27 56 l27 -3 -3 -90 c-1 -57 -8 -97 -17 -110 -7 -11 -22 -31 -31 -44
-14 -20 -19 -50 -22 -148 -1 -68 -5 -123 -7 -123 -3 0 -16 7 -29 16 -23 15
-25 15 -32 -2 -18 -44 -2 -194 21 -194 8 0 19 -6 26 -14 9 -12 17 -13 36 -4
23 11 30 39 27 116 -1 16 0 16 58 -9 l50 -22 29 28 c16 16 37 51 46 79 9 28
30 65 46 82 33 36 112 228 104 257 -4 16 -1 18 17 12 12 -3 61 -9 108 -12 143
-9 236 21 432 144 205 127 236 153 388 325 175 196 184 209 169 237 -17 33
-46 42 -108 36 -42 -5 -78 -1 -137 14 -217 56 -547 65 -710 20 -46 -13 -104
-69 -180 -174 -60 -83 -100 -109 -165 -108 -41 1 -64 5 -138 29 -11 3 41 55
130 129 21 18 25 35 42 187 14 130 15 174 7 201 l-12 34 -157 7 c-86 3 -168 9
-182 12 -14 3 -28 3 -31 -1z m-31 -916 c-23 -30 -23 -30 -29 -7 -8 31 -3 38
27 38 l25 0 -23 -31z m428 -70 c16 -15 20 -26 14 -38 -5 -9 -19 -60 -30 -113
-12 -54 -23 -98 -25 -98 -2 0 -17 22 -33 49 l-30 49 28 33 c18 23 30 52 35 87
4 28 10 52 13 52 3 0 16 -10 28 -21z m-1034 -1135 l77 -7 -16 -28 c-14 -24
-21 -27 -42 -21 -15 4 -95 6 -178 6 -84 -1 -153 0 -153 2 0 2 18 16 40 30 50
33 92 42 150 32 25 -4 80 -11 122 -14z m463 -341 c-47 -24 -103 -83 -111 -115
-5 -27 -7 -28 -23 -14 -10 9 -22 16 -27 16 -5 0 -83 -75 -173 -165 -103 -103
-170 -164 -179 -160 -8 3 -38 -16 -69 -44 -48 -43 -58 -48 -70 -35 -21 20 -34
18 -74 -16 -20 -16 -39 -27 -42 -24 -3 3 27 28 66 55 92 62 247 196 436 377
l150 142 73 0 c73 -1 73 -1 43 -17z m-89 -206 l21 -32 -38 -51 c-21 -29 -51
-77 -67 -108 -19 -38 -32 -52 -38 -46 -17 17 -37 3 -71 -47 -31 -44 -33 -45
-33 -21 0 15 6 31 13 35 31 18 126 163 152 231 16 39 31 72 34 72 3 0 15 -15
27 -33z m-585 -29 c-5 -26 -21 -43 -69 -77 -35 -24 -65 -42 -67 -40 -2 2 -6
15 -9 29 -5 22 2 30 72 71 42 26 78 47 78 48 1 0 -2 -14 -5 -31z m451 -391
c-24 -28 -114 -194 -117 -212 -1 -11 -17 -47 -36 -81 l-34 -60 -23 27 -23 28
31 49 c17 27 30 63 30 81 0 34 57 131 77 131 6 0 31 31 55 68 l43 69 3 -44 c2
-25 -1 -50 -6 -56z"/>
<path d="M4042 3914 l-143 -24 -227 -119 -227 -120 -114 -1 c-100 -1 -126 -5
-205 -31 -122 -42 -293 -125 -391 -190 -98 -65 -232 -197 -272 -267 -28 -49
-29 -56 -21 -108 10 -68 27 -101 70 -145 62 -61 154 -94 391 -138 120 -22 226
-45 236 -51 28 -14 70 -68 77 -97 23 -89 -71 -187 -341 -358 -217 -137 -240
-155 -300 -239 -140 -197 -185 -385 -186 -772 0 -176 12 -250 55 -348 14 -31
25 -59 26 -61 0 -5 10 -16 55 -66 8 -9 15 -21 15 -28 0 -7 5 -9 13 -5 14 8
-18 -32 -47 -58 -10 -10 -23 -18 -28 -18 -5 0 -6 -4 -3 -10 3 -5 1 -10 -5 -10
-14 0 -33 -19 -47 -45 -6 -12 -10 -75 -8 -150 1 -72 -1 -134 -4 -140 -12 -22
0 -180 15 -197 28 -30 117 -61 189 -66 116 -7 283 46 355 113 86 81 120 115
114 115 -4 0 3 9 16 20 13 11 20 20 16 20 -3 0 0 10 9 23 8 13 12 27 8 30 -3
4 -1 7 5 7 7 0 11 6 9 13 -1 6 9 13 23 14 164 15 152 16 190 -16 189 -165 261
-205 368 -207 62 -1 74 1 83 17 5 11 16 19 24 19 7 0 17 5 21 12 5 7 3 8 -7 3
-12 -8 -12 -6 0 8 7 9 18 14 24 10 6 -3 7 -1 3 5 -3 6 -1 14 6 19 7 4 20 17
28 27 12 16 12 18 1 11 -8 -5 -1 9 15 30 16 22 22 36 14 31 -12 -6 -11 -4 1 6
9 7 14 19 12 26 -3 6 0 12 6 12 6 0 7 7 4 17 -4 10 -2 14 5 9 6 -4 10 1 10 11
0 10 5 32 12 48 7 17 14 40 16 53 1 13 9 31 16 40 11 13 11 15 -2 7 -12 -6
-13 -5 -2 6 6 7 12 21 12 31 0 10 4 18 8 18 4 0 9 12 10 28 1 15 7 28 12 30 6
2 10 14 10 27 0 13 5 27 10 30 6 4 8 10 5 15 -3 5 -1 11 5 15 6 4 8 11 5 16
-4 5 -1 9 5 9 6 0 8 5 5 10 -3 6 1 13 9 16 9 3 13 10 10 15 -3 5 0 9 7 9 7 0
10 2 7 5 -8 8 65 84 75 78 4 -2 7 1 7 7 0 6 5 8 12 4 6 -4 9 -3 5 2 -3 5 18
32 46 59 28 28 44 41 36 30 -13 -18 -13 -19 3 -6 10 7 16 17 13 21 -3 5 4 15
15 23 11 7 17 17 14 20 -4 4 1 18 10 32 9 14 12 25 6 25 -6 0 -8 4 -5 10 3 5
1 10 -4 10 -6 0 -11 6 -11 13 0 6 -39 49 -87 93 l-87 82 41 83 c24 46 50 104
58 129 l16 45 -78 74 -78 73 79 -52 c106 -70 156 -91 220 -91 131 0 205 73
339 336 58 115 76 140 152 216 70 71 85 91 85 117 0 59 -42 78 -289 130 l-220
46 -11 44 c-6 24 -34 104 -61 177 l-51 133 -42 10 c-22 6 -97 16 -166 22 -69
6 -154 19 -190 30 -36 11 -51 18 -35 14 64 -13 734 -16 838 -4 124 14 225 34
239 48 15 15 -28 89 -84 144 -91 88 -260 190 -447 270 -53 22 -97 41 -99 43
-1 1 35 12 81 24 47 12 110 38 144 59 91 55 282 223 282 248 2 38 -82 97 -174
123 -53 15 -436 61 -500 60 -27 -1 -114 -12 -193 -25z m101 -264 c5 -4 -17
-17 -48 -30 -51 -21 -66 -22 -156 -16 -137 10 -158 19 -83 35 33 7 66 17 74
22 17 10 201 0 213 -11z m-272 -406 c87 -21 177 -53 155 -54 -14 0 -330 82
-336 87 -8 9 79 -7 181 -33z m-1241 -1994 c0 -11 -4 -20 -9 -20 -5 0 -7 9 -4
20 3 11 7 20 9 20 2 0 4 -9 4 -20z"/>
</g>
</svg>
